<?xml version="1.0" encoding="utf-8"?>
<!-- Generator: Adobe Illustrator 14.0.0, SVG Export Plug-In . SVG Version: 6.00 Build 43363)  -->
<!DOCTYPE svg PUBLIC "-//W3C//DTD SVG 1.1//EN" "http://www.w3.org/Graphics/SVG/1.1/DTD/svg11.dtd">
<svg version="1.1" id="图层_1" xmlns="http://www.w3.org/2000/svg" xmlns:xlink="http://www.w3.org/1999/xlink" x="0px" y="0px"
	 width="120px" height="120px" viewBox="0 0 120 120" enable-background="new 0 0 120 120" xml:space="preserve">
<ellipse fill="#FFF200" cx="60.022" cy="60" rx="59.978" ry="60"/>
<ellipse fill="#FFFFFF" cx="59.992" cy="59.396" rx="24.991" ry="25"/>
<g>
	<circle cx="60" cy="60" r="60"/>
</g>
<line fill="none" stroke="#000100" x1="79.759" y1="25.998" x2="79.685" y2="26.063"/>
<path fill="#FFF200" d="M90.013,7.999C72.053-2.308,49.254-3.041,30.034,8.062L60.003,60L90.013,7.999z"/>
<path fill="#FFF200" d="M89.984,111.91c17.872-10.386,29.889-29.741,29.886-51.906L60.022,60L89.984,111.91z"/>
<path fill="#FFF200" d="M0,60.005c0.059,20.71,10.823,40.83,30.046,51.93L60.022,60L0,60.005z"/>
<ellipse fill="#FFF200" cx="60.023" cy="60" rx="16.494" ry="16.5"/>
<circle cx="60.022" cy="60" r="9.996"/>
</svg>
